<svg t="1739957471898" class="icon" viewBox="0 0 1024 1024" version="1.1" xmlns="http://www.w3.org/2000/svg" p-id="24642" width="200" height="200"><path d="M498.724571 0l443.830858 256v512l-443.830858 256L54.857143 768V256l443.867428-256z m0 66.157714L112.420571 289.060571v447.268572l386.304 221.513143 386.267429-222.902857V289.060571L498.724571 66.194286zM493.714286 219.428571a292.571429 292.571429 0 0 1 90.185143 570.989715l-56.832-194.816a100.096 100.096 0 1 0-68.205715 5.046857l-55.332571 189.769143A292.571429 292.571429 0 0 1 493.714286 219.428571z m0 62.171429a230.4 230.4 0 0 0-135.68 416.694857l6.290285 4.388572 20.809143-71.314286-2.742857-2.194286a162.230857 162.230857 0 0 1-58.441143-117.065143l-0.182857-7.826285a162.267429 162.267429 0 1 1 279.296 112.420571l-3.949714 3.876571 23.954286 82.102858 6.326857-4.388572a230.509714 230.509714 0 0 0 94.537143-176.896L724.114286 512A230.4 230.4 0 0 0 493.714286 281.6z" fill="#FFDB6E" p-id="24643"></path></svg>