<svg t="1739956953544" class="icon" viewBox="0 0 1124 1024" version="1.1" xmlns="http://www.w3.org/2000/svg" p-id="9060" width="200" height="200"><path d="M1084.235294 702.745098a40.156863 40.156863 0 0 1 40.156863 40.156863v240.941176a40.156863 40.156863 0 0 1-40.156863 40.156863H843.294118a40.156863 40.156863 0 0 1-40.156863-40.156863V742.901961a40.156863 40.156863 0 0 1 40.156863-40.156863h240.941176z m-401.568627 0a40.156863 40.156863 0 0 1 40.156862 40.156863v240.941176a40.156863 40.156863 0 0 1-40.156862 40.156863H441.72549a40.156863 40.156863 0 0 1-40.156863-40.156863V742.901961a40.156863 40.156863 0 0 1 40.156863-40.156863h240.941177z m-401.568628 0a40.156863 40.156863 0 0 1 40.156863 40.156863v240.941176a40.156863 40.156863 0 0 1-40.156863 40.156863H40.156863a40.156863 40.156863 0 0 1-40.156863-40.156863V742.901961a40.156863 40.156863 0 0 1 40.156863-40.156863h240.941176z m803.137255 40.156863H843.294118v240.941176h240.941176V742.901961z m-401.568627 0H441.72549v240.941176h240.941177V742.901961z m-401.568628 0H40.156863v240.941176h240.941176V742.901961z m281.098039-240.941177a20.078431 20.078431 0 0 1 20.078432 20.078432l-0.020079 15.179294H923.607843a60.235294 60.235294 0 0 1 60.134902 56.70149l0.100392 3.533804v58.990431a20.078431 20.078431 0 0 1-40.156862 0v-58.990431a20.078431 20.078431 0 0 0-20.078432-20.078431H582.254431L582.27451 642.509804a20.078431 20.078431 0 0 1-40.156863 0l-0.020078-65.134431H200.784314a20.078431 20.078431 0 0 0-19.937883 17.749333L180.705882 597.453804v60.235294a20.078431 20.078431 0 0 1-40.156862 0v-60.235294a60.235294 60.235294 0 0 1 60.235294-60.235294h341.313255L542.117647 522.039216a20.078431 20.078431 0 0 1 20.078431-20.078432zM783.058824 0a60.235294 60.235294 0 0 1 60.235294 60.235294v341.333333a60.235294 60.235294 0 0 1-60.235294 60.235295H341.333333a60.235294 60.235294 0 0 1-60.235294-60.235295V60.235294a60.235294 60.235294 0 0 1 60.235294-60.235294h441.725491z m0 40.156863H341.333333a20.078431 20.078431 0 0 0-20.078431 20.078431v341.333333a20.078431 20.078431 0 0 0 20.078431 20.078432h441.725491a20.078431 20.078431 0 0 0 20.078431-20.078432V60.235294a20.078431 20.078431 0 0 0-20.078431-20.078431z m-60.235295 261.019608a20.078431 20.078431 0 1 1 0 40.156862 20.078431 20.078431 0 0 1 0-40.156862z m-140.549019 0a20.078431 20.078431 0 0 1 0 40.156862h-180.705883a20.078431 20.078431 0 0 1 0-40.156862h180.705883z m140.549019-100.392157a20.078431 20.078431 0 0 1 0 40.156862H401.568627a20.078431 20.078431 0 0 1 0-40.156862h321.254902z m0-100.392157a20.078431 20.078431 0 0 1 0 40.156863H401.568627a20.078431 20.078431 0 0 1 0-40.156863h321.254902z" fill="#FFDB6E" p-id="9061"></path></svg>