<svg t="1739957138977" class="icon" viewBox="0 0 1024 1024" version="1.1" xmlns="http://www.w3.org/2000/svg" p-id="14587" width="200" height="200"><path d="M960 128c17.6 0 32 14.4 32 32v608c0 17.6-14.4 32-32 32H64c-17.6 0-32-14.4-32-32V160c0-17.6 14.4-32 32-32h896m0-32H64c-35.2 0-64 28.8-64 64v608c0 35.2 28.8 64 64 64h896c35.2 0 64-28.8 64-64V160c0-35.2-28.8-64-64-64z" fill="#FFDB6E" p-id="14588"></path><path d="M512 752c-3.2 0-4.8 0-8-1.6-4.8-3.2-8-8-8-14.4V512c0-6.4 3.2-11.2 8-14.4l193.6-112c4.8-3.2 11.2-3.2 16 0 4.8 3.2 8 8 8 14.4v224c0 6.4-3.2 11.2-8 14.4l-193.6 112c-1.6 1.6-4.8 1.6-8 1.6z m17.6-230.4v185.6l161.6-94.4V427.2l-161.6 94.4z" fill="#FFDB6E" p-id="14589"></path><path d="M513.6 528c-3.2 0-4.8 0-8-1.6l-195.2-112c-4.8-3.2-8-8-8-14.4s3.2-11.2 8-14.4l193.6-112c4.8-3.2 11.2-3.2 16 0l195.2 112c4.8 3.2 8 8 8 14.4s-3.2 11.2-8 14.4l-193.6 112c-3.2 1.6-6.4 1.6-8 1.6z m-163.2-128l163.2 94.4 160-94.4L512 307.2 350.4 400z" fill="#FFDB6E" p-id="14590"></path><path d="M512 752c-3.2 0-4.8 0-8-1.6l-195.2-112c-4.8-3.2-8-8-8-14.4V400c0-6.4 3.2-11.2 8-14.4 4.8-3.2 11.2-3.2 16 0l195.2 112c4.8 3.2 8 8 8 14.4v224c0 6.4-3.2 11.2-8 14.4-1.6 1.6-4.8 1.6-8 1.6z m-177.6-137.6L496 708.8V521.6l-163.2-94.4 1.6 187.2zM720 992H304c-27.2 0-48-20.8-48-48s20.8-48 48-48h416c27.2 0 48 20.8 48 48s-20.8 48-48 48z m-416-64c-9.6 0-16 6.4-16 16s6.4 16 16 16h416c9.6 0 16-6.4 16-16s-6.4-16-16-16H304z" fill="#FFDB6E" p-id="14591"></path><path d="M496 800h32v112h-32z" fill="#FFDB6E" p-id="14592"></path><path d="M78.4 160m-8 0a8 8 0 1 0 16 0 8 8 0 1 0-16 0Z" fill="#FFDB6E" p-id="14593"></path><path d="M78.4 176c-9.6 0-16-6.4-16-16s6.4-16 16-16 16 6.4 16 16-6.4 16-16 16z m0-16h8-8z" fill="#FFDB6E" p-id="14594"></path><path d="M126.4 160m-8 0a8 8 0 1 0 16 0 8 8 0 1 0-16 0Z" fill="#FFDB6E" p-id="14595"></path><path d="M126.4 176c-9.6 0-16-6.4-16-16s6.4-16 16-16 16 6.4 16 16-6.4 16-16 16z m0-16h8-8z" fill="#FFDB6E" p-id="14596"></path><path d="M174.4 160m-8 0a8 8 0 1 0 16 0 8 8 0 1 0-16 0Z" fill="#FFDB6E" p-id="14597"></path><path d="M174.4 176c-9.6 0-16-6.4-16-16s6.4-16 16-16 16 6.4 16 16-6.4 16-16 16z m0-16h8-8z" fill="#FFDB6E" p-id="14598"></path><path d="M16 192h992v32H16z" fill="#FFDB6E" p-id="14599"></path></svg>