<svg t="1739957338779" class="icon" viewBox="0 0 1024 1024" version="1.1" xmlns="http://www.w3.org/2000/svg" p-id="19163" width="200" height="200"><path d="M958.11 147.204c0-45.121-36.707-81.824-81.82-81.824h-729.6c-45.12 0-81.823 36.707-81.823 81.824v178.342a81.06 81.06 0 0 0 16.156 48.597c-10.465 14.02-16.156 31.06-16.156 48.767v178.349a81.08 81.08 0 0 0 16.156 48.593 81.063 81.063 0 0 0-16.156 48.598V876.8c0 45.117 36.708 81.82 81.823 81.82h729.421c45.12 0 81.824-36.703 81.824-81.82V698.45a81.05 81.05 0 0 0-16.179-48.63c10.482-14.15 16.179-31.133 16.179-48.561v-178.35a81.08 81.08 0 0 0-16.179-48.628c10.482-14.145 16.179-31.128 16.179-48.56l0.175-178.517z m-66.603 180.385c-1 7.51-7.443 13.318-15.218 13.318H146.69c-8.47 0-15.36-6.894-15.36-15.36V147.203c0-8.47 6.89-15.36 15.36-15.36h729.421c8.47 0 15.361 6.893 15.361 15.36v178.342l0.035 2.043z m-760.176 95.32c0-8.47 6.89-15.36 15.36-15.36h729.42c8.47 0 15.361 6.894 15.361 15.36v178.174l0.041 2.04c-1.002 7.513-7.443 13.325-15.219 13.325H146.696c-8.471 0-15.361-6.893-15.361-15.366V422.91h-0.004z m0 275.537c0-8.47 6.89-15.366 15.36-15.366h729.42c8.47 0 15.361 6.895 15.361 15.366v178.347l0.041 2.039c-1.002 7.505-7.443 13.309-15.219 13.309H146.696c-8.471 0-15.361-6.886-15.361-15.352V698.446h-0.004z" p-id="19164" fill="#FFDB6E"></path><path d="M795.221 198.914H582.667c-19.645 0-35.636 15.986-35.636 35.641 0 19.646 15.986 35.635 35.636 35.635h212.554c19.65 0 35.64-15.985 35.64-35.635-0.004-19.655-15.99-35.64-35.64-35.64zM582.667 547.63h212.554c19.65 0 35.64-15.987 35.64-35.637s-15.986-35.636-35.64-35.636H582.667c-19.645 0-35.636 15.986-35.636 35.636 0 19.65 15.986 35.637 35.636 35.637z m0 277.444h212.554c19.65 0 35.64-15.987 35.64-35.635s-15.986-35.64-35.64-35.64H582.667c-19.645 0-35.636 15.987-35.636 35.64 0 19.648 15.986 35.635 35.636 35.635z m-380.208-590.53c0 22.209 18.003 40.212 40.21 40.212s40.21-18.003 40.21-40.211-18.003-40.211-40.21-40.211-40.21 18.004-40.21 40.21m134.035 0c0 22.209 18.003 40.212 40.211 40.212s40.21-18.003 40.21-40.211-18.003-40.211-40.21-40.211-40.21 18.004-40.21 40.21M202.458 507.084c0 22.208 18.003 40.212 40.21 40.212s40.21-18.004 40.21-40.212c0-22.207-18.003-40.21-40.21-40.21s-40.21 18.003-40.21 40.21m134.035 0c0 22.208 18.003 40.212 40.211 40.212s40.21-18.004 40.21-40.212c0-22.207-18.003-40.21-40.21-40.21s-40.21 18.003-40.21 40.21M202.458 784.091c0 22.209 18.003 40.21 40.21 40.21s40.21-18.001 40.21-40.21c0-22.207-18.003-40.21-40.21-40.21s-40.21 18.002-40.21 40.21m134.035 0c0 22.209 18.003 40.21 40.211 40.21s40.21-18.001 40.21-40.21c0-22.207-18.003-40.21-40.21-40.21s-40.21 18.002-40.21 40.21" p-id="19165" fill="#FFDB6E"></path></svg>